<svg t="1671444308222" class="icon" viewBox="0 0 1024 1024" version="1.1" xmlns="http://www.w3.org/2000/svg" p-id="1756" width="200" height="200"><path d="M596.194 138.74A87.977 87.977 0 0 1 622 200.984v624.03C622 873.608 582.6 913 534 913a88.008 88.008 0 0 1-62.257-25.801l-160.029-160.16a48 48 0 0 0-33.955-14.073l-61.759 0.001c-70.692 0-128-57.297-128-127.978V441.015c0-70.68 57.308-127.978 128-127.978h61.755a48 48 0 0 0 33.955-14.073L471.743 138.8c34.35-34.377 90.068-34.405 124.451-0.062z m-79.173 45.297L352.299 348.886a96 96 0 0 1-67.907 28.144H216c-35.346 0-64 28.648-64 63.987v143.97c0 35.339 28.654 63.987 64 63.987l68.394-0.001a96 96 0 0 1 67.91 28.144L517.02 841.964A24.003 24.003 0 0 0 534 849c13.255 0 24-10.743 24-23.995v-624.01a23.992 23.992 0 0 0-6.72-16.651l-0.318-0.325-0.292-0.286c-9.398-9.078-24.378-8.975-33.65 0.304z m421.866 196.628c12.517 12.517 12.517 32.811 0 45.329l-88.283 88.281 88.283 88.283c12.517 12.517 12.517 32.811 0 45.329-12.518 12.517-32.812 12.517-45.33 0l-88.282-88.283-88.281 88.283c-12.518 12.517-32.812 12.517-45.33 0-12.517-12.518-12.517-32.812 0-45.33l88.282-88.282-88.281-88.281c-12.518-12.518-12.518-32.812 0-45.33 12.517-12.517 32.811-12.517 45.329 0l88.281 88.282 88.283-88.281c12.517-12.518 32.811-12.518 45.329 0z" fill="#ccc" p-id="1757"></path></svg>
