<svg t="1671444438817" class="icon" viewBox="0 0 1024 1024" version="1.1" xmlns="http://www.w3.org/2000/svg" p-id="1756" width="200" height="200"><path d="M596 139c16.71 16.242 26 38.634 26 62v624c0 48.608-39.423 88-88 88-23.423 0-45.833-9.282-62-26L312.059 727.059A48 48 0 0 0 278.118 713H216c-70.657 0.295-128-57.003-128-128V441c0-70.338 57.343-127.636 128-128h61.198a48 48 0 0 0 33.844-13.962L472 139c34.021-34.576 89.774-34.604 124 0z m-79 45L352.118 348.882A96 96 0 0 1 284.235 377H216c-35.323 0.358-64 29.006-64 64v144c0 35.297 28.106 63.728 62.942 64h69.293a96 96 0 0 1 67.883 28.118L517 842a24.112 24.112 0 0 0 17 7c13.246 0 24-10.743 24-24V201c0-6.221-2.415-12.189-7-17-9.741-9.345-24.733-9.242-34 0z m298.153 87.989C883.63 332.312 924 422.217 924 518.999c0 96.784-40.37 186.689-108.847 247.012-13.262 11.683-33.482 10.403-45.165-2.859-11.682-13.261-10.402-33.482 2.86-45.164C827.493 669.849 860 597.455 860 519s-32.507-150.85-87.152-198.988c-13.262-11.682-14.542-31.903-2.86-45.164 11.683-13.262 31.903-14.542 45.165-2.86z m-95.508 93.39C760.867 403.048 785 458.494 785 517.973c0 59.513-24.161 114.988-65.425 152.659-13.052 11.915-33.292 10.994-45.208-2.058-11.796-12.922-11.011-32.888 1.67-44.848l0.388-0.36 0.834-0.768C704.657 597.13 721 559.193 721 517.974c0-41.613-16.656-79.88-44.53-105.352-13.045-11.922-13.956-32.163-2.034-45.209 11.922-13.046 32.163-13.957 45.209-2.035z" fill="#417469" p-id="1757"></path></svg>